<svg width="1920" height="1080" viewBox="0 0 1920 1080" xmlns="http://www.w3.org/2000/svg" transform="rotate(180)">
  <rect width="1920" height="1080" fill="#edf2f4"/>
  <path d="M1920,1080C1600.3333333333333,1130.3333333333333,297.3333333333333,1102.5,0,1080C-297.3333333333333,1057.5,91.16666666666666,965,136,945C180.83333333333334,925,223.83333333333334,974.3333333333334,269,960C314.1666666666667,945.6666666666666,361.3333333333333,867.3333333333334,407,859C452.6666666666667,850.6666666666666,497.5,896.8333333333334,543,910C588.5,923.1666666666666,634.3333333333334,950.5,680,938C725.6666666666666,925.5,771.3333333333334,825.1666666666666,817,835C862.6666666666666,844.8333333333334,908.5,998.8333333333334,954,997C999.5,995.1666666666666,1043.5,834,1090,824C1136.5,814,1186.1666666666667,922.8333333333334,1233,937C1279.8333333333333,951.1666666666666,1325.6666666666667,921.1666666666666,1371,909C1416.3333333333333,896.8333333333334,1460.1666666666667,868,1505,864C1549.8333333333333,860,1594.5,849.6666666666666,1640,885C1685.5,920.3333333333334,1731.6666666666667,1093.8333333333333,1778,1076C1824.3333333333333,1058.1666666666667,1894.3333333333333,777.3333333333334,1918,778C1941.6666666666667,778.6666666666666,2239.6666666666665,1029.6666666666667,1920,1080C1600.3333333333333,1130.3333333333333,297.3333333333333,1102.5,0,1080" fill="#ef233c"/>
</svg>
