<svg width="1920" height="1080" viewBox="0 0 1920 1080" xmlns="http://www.w3.org/2000/svg"><rect width="1920" height="1080" fill="#edf2f4"/><path d="M 0,1080 C 0,1080 0,108 0,108 C 17.707449046655597,115.52083734973229 35.414898093311194,123.0416746994646 64,111 C 92.5851019066888,98.9583253005354 132.04785667341085,67.3541385518739 161,71 C 189.95214332658915,74.6458614481261 208.39367521304547,113.5417710930398 226,116 C 243.60632478695453,118.4582289069602 260.37744247440725,84.47877707596692 283,79 C 305.62255752559275,73.52122292403308 334.09655488932566,96.54312060309252 360,100 C 385.90344511067434,103.45687939690748 409.23633796829023,87.34874051166302 438,91 C 466.76366203170977,94.65125948833698 500.95809323751337,118.06191735025536 523,132 C 545.0419067624866,145.93808264974464 554.9312890816562,150.40359008731542 581,137 C 607.0687109183438,123.59640991268456 649.3167504358611,92.32372230048288 677,98 C 704.6832495641389,103.67627769951712 717.8017091748993,146.30152071075304 737,146 C 756.1982908251007,145.69847928924696 781.4764128645414,102.47019485650488 806,95 C 830.5235871354586,87.52980514349512 854.2926393669353,115.81769986322749 882,122 C 909.7073606330647,128.1823001367725 941.3530296677174,112.25900569058517 963,109 C 984.6469703322826,105.74099430941483 996.295241962195,115.14627737443183 1020,116 C 1043.704758037805,116.85372262556817 1079.4660024835032,109.1558848116874 1111,107 C 1142.5339975164968,104.8441151883126 1169.8407481037918,108.23018337881857 1193,100 C 1216.1592518962082,91.76981662118143 1235.1710051013283,71.9233816730383 1261,70 C 1286.8289948986717,68.0766183269617 1319.4752314908949,84.07628992902819 1343,94 C 1366.5247685091051,103.92371007097181 1380.9280689350926,107.7714586108489 1400,114 C 1419.0719310649074,120.2285413891511 1442.8124927687338,128.83787562757612 1468,122 C 1493.1875072312662,115.16212437242389 1519.8219599899724,92.87703887884662 1548,88 C 1576.1780400100276,83.12296112115338 1605.8996672713768,95.6539688570374 1631,112 C 1656.1003327286232,128.3460311429626 1676.5793709245208,148.50708569300383 1699,137 C 1721.4206290754792,125.49291430699618 1745.7828490305405,82.31768837094742 1772,81 C 1798.2171509694595,79.68231162905258 1826.2892329533158,120.22216082320645 1853,138 C 1879.7107670466842,155.77783917679355 1905.0602191561952,150.79366833622672 1916,142 C 1926.9397808438048,133.20633166377328 1923.4698904219024,120.60316583188664 1920,108 C 1920,108 1920,1080 1920,1080 Z" fill="#8d99ae" opacity="0.06"/><path d="M 0,1080 C 0,1080 0,216 0,216 C 21.267890243651472,216.89006056285876 42.535780487302944,217.7801211257175 65,222 C 87.46421951269706,226.2198788742825 111.12476829443969,233.7695760599887 141,245 C 170.8752317055603,256.2304239400113 206.96514633493825,271.1415746343275 232,253 C 257.03485366506175,234.8584253656725 271.0146463658073,183.6641254027014 293,180 C 314.9853536341927,176.3358745972986 344.97626820183257,220.201923754867 369,227 C 393.02373179816743,233.798076245133 411.0802808268622,203.52817957783054 436,204 C 460.9197191731378,204.47182042216946 492.7026084907187,235.68535793381076 520,238 C 547.2973915092813,240.31464206618924 570.1092852102628,213.73038868692657 593,213 C 615.8907147897372,212.26961131307343 638.8602506682299,237.39308731848294 664,244 C 689.1397493317701,250.60691268151706 716.4497121168173,238.69726203914175 743,223 C 769.5502878831827,207.30273796085825 795.3409008645009,187.81786452495007 820,192 C 844.6590991354991,196.18213547504993 868.1866844251796,224.03127986105798 891,223 C 913.8133155748204,221.96872013894202 935.9123614347809,192.05701603081795 958,182 C 980.0876385652191,171.94298396918205 1002.1638698356974,181.7406560156702 1024,193 C 1045.8361301643026,204.2593439843298 1067.4321592224294,216.98035990650126 1097,229 C 1126.5678407775706,241.01964009349874 1164.107493274585,252.33790435832478 1194,253 C 1223.892506725415,253.66209564167522 1246.1378676792299,243.66802266019957 1269,240 C 1291.8621323207701,236.33197733980043 1315.341036008495,238.9900050008769 1335,225 C 1354.658963991505,211.0099949991231 1370.4979882867904,180.3719573362928 1393,191 C 1415.5020117132096,201.6280426637072 1444.6670108443432,253.52216565395184 1471,253 C 1497.3329891556568,252.47783434604816 1520.8339683358372,199.53938004789984 1548,196 C 1575.1660316641628,192.46061995210016 1605.9971158123071,238.32031415444877 1629,244 C 1652.0028841876929,249.67968584555123 1667.177568414934,215.17936333430518 1689,201 C 1710.822431585066,186.82063666569482 1739.2926105279557,192.96223250833057 1764,205 C 1788.7073894720443,217.03776749166943 1809.6519894732426,234.9717066323725 1842,232 C 1874.3480105267574,229.0282933676275 1918.0994315790736,205.15094096217925 1933,199 C 1947.9005684209264,192.84905903782075 1933.9502842104632,204.4245295189104 1920,216 C 1920,216 1920,1080 1920,1080 Z" fill="#8d99ae" opacity="0.12"/><path d="M 0,1080 C 0,1080 0,324 0,324 C 26.461408151244385,316.12899943288295 52.92281630248877,308.2579988657659 74,316 C 95.07718369751123,323.7420011342341 110.7701429412893,347.09700396981924 134,348 C 157.2298570587107,348.90299603018076 187.99661193235409,327.35398525495697 214,315 C 240.00338806764591,302.64601474504303 261.24340932929437,299.48705501035295 287,310 C 312.75659067070563,320.51294498964705 343.02975075046845,344.6977947036312 371,353 C 398.97024924953155,361.3022052963688 424.6375876688316,353.7217661751224 450,343 C 475.3624123311684,332.2782338248776 500.41989857420504,318.41514059587905 523,316 C 545.580101425795,313.58485940412095 565.6828180343482,322.61767144136115 590,324 C 614.3171819656518,325.38232855863885 642.8488292884019,319.1141736386765 671,310 C 699.1511707115981,300.8858263613235 726.9218648120442,288.9256340039328 751,305 C 775.0781351879558,321.0743659960672 795.4637114634211,365.18329034559224 820,364 C 844.5362885365789,362.81670965440776 873.2232893342712,316.3412046136981 898,300 C 922.7767106657288,283.6587953863019 943.6431311994942,297.45189119961543 964,301 C 984.3568688005058,304.54810880038457 1004.2041858677519,297.85123058784023 1032,301 C 1059.795814132248,304.14876941215977 1095.5401253294988,317.1431864490237 1119,321 C 1142.4598746705012,324.8568135509763 1153.6353128142523,319.5760236160652 1177,316 C 1200.3646871857477,312.4239763839348 1235.9186234134913,310.5527190867155 1263,315 C 1290.0813765865087,319.4472809132845 1308.6901935317821,330.2131000370729 1329,326 C 1349.3098064682179,321.7868999629271 1371.3206024593806,302.594880764993 1395,292 C 1418.6793975406194,281.405119235007 1444.0273966306959,279.4073769029551 1469,284 C 1493.9726033693041,288.5926230970449 1518.5698110178362,299.77561162318676 1545,307 C 1571.4301889821638,314.22438837681324 1599.6933592979594,317.49017660429786 1622,327 C 1644.3066407020406,336.50982339570214 1660.6567517903259,352.26368195962186 1684,353 C 1707.3432482096741,353.73631804037814 1737.6796335407373,339.4550955572148 1768,322 C 1798.3203664592627,304.5449044427852 1828.6247140467246,283.91593581151903 1858,287 C 1887.3752859532754,290.08406418848097 1915.821510272364,316.8811611967089 1926,327 C 1936.178489727636,337.1188388032911 1928.0892448638178,330.5594194016455 1920,324 C 1920,324 1920,1080 1920,1080 Z" fill="#8d99ae" opacity="0.18"/><path d="M 0,1080 C 0,1080 0,432 0,432 C 28.54614000388306,435.56197712158803 57.09228000776612,439.123954243176 82,447 C 106.90771999223388,454.876045756824 128.1770199728186,467.0661601488839 150,458 C 171.8229800271814,448.9338398511161 194.19964010095939,418.611405161288 220,419 C 245.80035989904061,419.388594838712 275.02441962334393,450.4882192059639 300,455 C 324.97558037665607,459.5117807940361 345.7026814056649,437.43571801485626 369,423 C 392.2973185943351,408.56428198514374 418.16485475399656,401.768908734611 442,395 C 465.83514524600344,388.231091265389 487.63789957834865,381.4886470466997 509,393 C 530.3621004216513,404.5113529533003 551.2835469326086,434.27650307858994 579,441 C 606.7164530673914,447.72349692141006 641.2279126912168,431.4053406389402 672,421 C 702.7720873087832,410.5946593610598 729.8048023025243,406.10213436564925 750,401 C 770.1951976974757,395.89786563435075 783.5528780986859,390.1861218984628 808,395 C 832.4471219013141,399.8138781015372 867.9836853027318,415.15337804049943 893,426 C 918.0163146972682,436.84662195950057 932.5123806903861,443.20036593953927 958,438 C 983.4876193096139,432.79963406046073 1019.9667919357241,416.0451582013434 1043,427 C 1066.0332080642759,437.9548417986566 1075.6204515667168,476.61900125508714 1100,470 C 1124.3795484332832,463.38099874491286 1163.551401797408,411.4788367783078 1192,411 C 1220.448598202592,410.5211632216922 1238.1739412436514,461.46565163168157 1257,467 C 1275.8260587563486,472.53434836831843 1295.7528332279865,432.6585566949659 1318,420 C 1340.2471667720135,407.3414433050341 1364.8147258444021,421.9001215884548 1393,426 C 1421.1852741555979,430.0998784115452 1452.9882633944053,423.74095695121486 1483,418 C 1513.0117366055947,412.25904304878514 1541.2322205779765,407.13605060668556 1563,416 C 1584.7677794220235,424.86394939331444 1600.082854293688,447.7148406220427 1626,455 C 1651.917145706312,462.2851593779573 1688.4363622472715,454.00458690514324 1710,452 C 1731.5636377527285,449.99541309485676 1738.1716967172258,454.2668117573843 1761,441 C 1783.8283032827742,427.7331882426157 1822.876850883824,396.92816606531966 1856,405 C 1889.123149116176,413.07183393468034 1916.3208997474787,460.0205239813372 1926,471 C 1935.6791002525213,481.9794760186628 1927.8395501262607,456.9897380093314 1920,432 C 1920,432 1920,1080 1920,1080 Z" fill="#8d99ae" opacity="0.24"/><path d="M 0,1080 C 0,1080 0,540 0,540 C 25.333321010028108,541.3718637359912 50.666642020056216,542.7437274719824 76,550 C 101.33335797994378,557.2562725280176 126.66675292980321,570.3969538480617 151,559 C 175.3332470701968,547.6030461519383 198.66634626073093,511.66845713577084 221,509 C 243.33365373926907,506.33154286422916 264.6678620272731,536.9292176088551 294,543 C 323.3321379727269,549.0707823911449 360.66220563017674,530.6146724288087 382,537 C 403.33779436982326,543.3853275711913 408.6833154520201,574.6120926759097 433,569 C 457.3166845479799,563.3879073240903 500.604532561743,520.936956867552 526,517 C 551.395467438257,513.063043132448 558.898554301008,547.6400798538823 584,550 C 609.101445698992,552.3599201461177 651.8012502342252,522.5027237169186 676,510 C 700.1987497657748,497.4972762830814 705.8964447620912,502.3490252784431 729,503 C 752.1035552379088,503.6509747215569 792.6129707174101,500.10117516930904 821,508 C 849.3870292825899,515.898824830691 865.6516723682679,535.2462740443209 888,536 C 910.3483276317321,536.7537259556791 938.7803398095184,518.9137286534072 962,521 C 985.2196601904816,523.0862713465928 1003.2269683936588,545.0988113420498 1026,552 C 1048.7730316063412,558.9011886579502 1076.311786615846,550.691025978393 1100,549 C 1123.688213384154,547.308974021607 1143.525885142957,552.137084744378 1169,564 C 1194.474114857043,575.862915255622 1225.5846728123258,594.7606350440949 1249,579 C 1272.4153271876742,563.2393649559051 1288.1354236077393,512.8203750792425 1317,504 C 1345.8645763922607,495.1796249207576 1387.8736327567165,527.9578646389356 1413,537 C 1438.1263672432835,546.0421353610644 1446.3700453653948,531.3481663650149 1466,534 C 1485.6299546346052,536.6518336349851 1516.646185781704,556.6494699010045 1545,563 C 1573.353814218296,569.3505300989955 1599.0452115077892,562.0539540309669 1621,566 C 1642.9547884922108,569.9460459690331 1661.1729681871393,585.1347139751277 1686,567 C 1710.8270318128607,548.8652860248723 1742.2629157436531,497.40719006852237 1767,502 C 1791.7370842563469,506.59280993147763 1809.7753688382468,567.2365257507826 1837,570 C 1864.2246311617532,572.7634742492174 1900.635608903358,517.6467069283478 1916,503 C 1931.364391096642,488.35329307165216 1925.682195548321,514.1766465358261 1920,540 C 1920,540 1920,1080 1920,1080 Z" fill="#8d99ae" opacity="0.3"/><path d="M 0,1080 C 0,1080 0,648 0,648 C 26.428787648072777,658.6584919658881 52.857575296145555,669.3169839317762 77,660 C 101.14242470385445,650.6830160682238 122.99848646349056,621.3905562387831 149,620 C 175.00151353650944,618.6094437612169 205.14847884989223,645.1207911130912 230,649 C 254.85152115010777,652.8792088869088 274.40759813694046,634.1262793088521 296,626 C 317.59240186305954,617.8737206911479 341.2211286023459,620.3740916515006 367,615 C 392.7788713976541,609.6259083484994 420.707887453676,596.3773540851458 445,614 C 469.292112546324,631.6226459148542 489.94732158295005,680.116492007916 516,681 C 542.05267841705,681.883507992084 573.502826214524,635.1566778831904 600,630 C 626.497173785476,624.8433221168096 648.0413735589539,661.2567964593228 668,669 C 687.9586264410461,676.7432035406772 706.3316795496609,655.8161362795184 730,640 C 753.6683204503391,624.1838637204816 782.6319082424026,613.4786584226034 813,628 C 843.3680917575974,642.5213415773966 875.1406874807287,682.2692300300682 895,680 C 914.8593125192713,677.7307699699318 922.8053418346827,633.4444214571237 946,614 C 969.1946581653173,594.5555785428763 1007.6379451805408,599.9530841414377 1038,610 C 1068.3620548194592,620.0469158585623 1090.6428774431538,634.7432419771254 1114,631 C 1137.3571225568462,627.2567580228746 1161.7905450468447,605.0739479500608 1183,612 C 1204.2094549531553,618.9260520499392 1222.1949423694666,654.9609662226311 1246,659 C 1269.8050576305334,663.0390337773689 1299.429685475288,635.0821871594146 1324,637 C 1348.570314524712,638.9178128405854 1368.086315729381,670.7102851397102 1394,677 C 1419.913684270619,683.2897148602898 1452.2250516071883,664.0766722817442 1480,656 C 1507.7749483928117,647.9233277182558 1531.0134778418658,650.9830257333128 1551,659 C 1570.9865221581342,667.0169742666872 1587.7210370253474,679.9912247850042 1611,667 C 1634.2789629746526,654.0087752149958 1664.1023740567437,615.0520751266702 1690,617 C 1715.8976259432563,618.9479248733298 1737.869466747677,661.8004747083152 1760,663 C 1782.130533252323,664.1995252916848 1804.4197589525481,623.7460260400691 1832,621 C 1859.5802410474519,618.2539739599309 1892.451497442129,653.2154211314088 1908,664 C 1923.548502557871,674.7845788685912 1921.7742512789355,661.3922894342957 1920,648 C 1920,648 1920,1080 1920,1080 Z" fill="#8d99ae" opacity="0.36"/><path d="M 0,1080 C 0,1080 0,756 0,756 C 22.69661716081015,736.3533503228435 45.3932343216203,716.7067006456871 67,725 C 88.6067656783797,733.2932993543129 109.12367987432896,769.5265477400952 137,787 C 164.87632012567104,804.4734522599048 200.11204618106393,803.1871083939319 225,788 C 249.88795381893607,772.8128916060681 264.4281354014153,743.725018684177 288,735 C 311.5718645985847,726.274981315823 344.1754122132746,737.9128168693601 370,736 C 395.8245877867254,734.0871831306399 414.870215745486,718.6237138383827 435,718 C 455.129784254514,717.3762861616173 476.3437248047811,731.5923277771092 503,745 C 529.6562751952189,758.4076722228908 561.7548850353897,771.0069750531809 592,765 C 622.2451149646103,758.9930249468191 650.6367350536597,734.3797720101675 671,740 C 691.3632649463403,745.6202279898325 703.6981747499716,781.4739369061492 727,782 C 750.3018252500284,782.5260630938508 784.5705659464538,747.7244803652355 812,746 C 839.4294340535462,744.2755196347645 860.0195614642136,775.6281416329089 886,772 C 911.9804385357864,768.3718583670911 943.3511881966919,729.762953103129 965,721 C 986.6488118033081,712.237046896871 998.5756857490187,733.3200459545751 1022,749 C 1045.4243142509813,764.6799540454249 1080.3460688072328,774.9568630785708 1106,773 C 1131.6539311927672,771.0431369214292 1148.0400390220507,756.8525017311418 1171,751 C 1193.9599609779493,745.1474982688582 1223.4937751045654,747.6331299968615 1253,743 C 1282.5062248954346,738.3668700031385 1311.9848605596871,726.6149782814119 1336,738 C 1360.0151394403129,749.3850217185881 1378.5667826566848,783.9069568774909 1400,789 C 1421.4332173433152,794.0930431225091 1445.7480088135728,769.7571942086247 1470,758 C 1494.2519911864272,746.2428057913753 1518.4411820890248,747.0642662880103 1548,745 C 1577.5588179109752,742.9357337119897 1612.4872628303278,737.985740639334 1635,736 C 1657.5127371696722,734.014259360666 1667.6097665896634,734.9927711546535 1690,746 C 1712.3902334103366,757.0072288453465 1747.0736708110185,778.0431747420516 1775,770 C 1802.9263291889815,761.9568252579484 1824.0955501662638,724.83452987714 1851,721 C 1877.9044498337362,717.16547012286 1910.5441285239244,746.6187057493886 1923,758 C 1935.4558714760756,769.3812942506114 1927.7279357380378,762.6906471253058 1920,756 C 1920,756 1920,1080 1920,1080 Z" fill="#8d99ae" opacity="0.42"/><path d="M 0,1080 C 0,1080 0,864 0,864 C 28.75617640495222,854.0609449952952 57.51235280990444,844.1218899905905 81,843 C 104.48764719009556,841.8781100094095 122.70676516533445,849.5733850329335 142,850 C 161.29323483466555,850.4266149670665 181.66058652875785,843.5845698776757 211,842 C 240.33941347124215,840.4154301223243 278.6508887196341,844.0883354563637 306,845 C 333.3491112803659,845.9116645436363 349.73585859270577,844.0620882968698 370,844 C 390.26414140729423,843.9379117031302 414.40567690954305,845.6633113561574 441,847 C 467.59432309045695,848.3366886438426 496.6414337691223,849.284666278501 521,848 C 545.3585662308777,846.715333721499 565.0285880139681,843.1980235298385 589,848 C 612.9714119860319,852.8019764701615 641.2442141750053,865.9232396021451 666,879 C 690.7557858249947,892.0767603978549 711.994555286011,905.1090180615807 736,897 C 760.005444713989,888.8909819384193 786.7775646809511,859.6406881515322 813,861 C 839.2224353190489,862.3593118484678 864.8951859901847,894.3282293322901 889,897 C 913.1048140098153,899.6717706677099 935.6416913583096,873.0463945193072 960,872 C 984.3583086416904,870.9536054806928 1010.538048576577,895.486192590481 1036,897 C 1061.461951423423,898.513807409519 1086.206114335382,877.008835118769 1108,869 C 1129.793885664618,860.991164881231 1148.637494081896,866.4784669344434 1175,859 C 1201.362505918104,851.5215330655566 1235.2439093370338,831.0772971434571 1263,829 C 1290.7560906629662,826.9227028565429 1312.386868569969,843.2123444917282 1333,863 C 1353.613131430031,882.7876555082718 1373.2086163830902,906.0733248896297 1401,899 C 1428.7913836169098,891.9266751103703 1464.77866589767,854.4943559497522 1490,855 C 1515.22133410233,855.5056440502478 1529.676720026229,893.9492513113614 1550,894 C 1570.323279973771,894.0507486886386 1596.514453997413,855.7086388048018 1624,842 C 1651.485546002587,828.2913611951982 1680.2654639841187,839.2161934694316 1707,840 C 1733.7345360158813,840.7838065305684 1758.4236900661126,831.4265873174719 1783,827 C 1807.5763099338874,822.5734126825281 1832.039775751431,823.0774572606807 1858,830 C 1883.960224248569,836.9225427393193 1911.4172069281626,850.2635836398055 1922,857 C 1932.5827930718374,863.7364163601945 1926.2913965359187,863.8682081800973 1920,864 C 1920,864 1920,1080 1920,1080 Z" fill="#8d99ae" opacity="0.48"/><path d="M 0,1080 C 0,1080 0,972 0,972 C 30.645619990585388,964.7198750381972 61.291239981170776,957.4397500763945 87,967 C 112.70876001882922,976.5602499236055 133.48066006590227,1002.9608747326193 157,999 C 180.51933993409773,995.0391252673807 206.78611975522006,960.7167509931289 230,964 C 253.21388024477994,967.2832490068711 273.3748609132174,1008.1721212948652 293,1012 C 312.6251390867826,1015.8278787051348 331.7144365919105,982.5947638274099 359,972 C 386.2855634080895,961.4052361725901 421.7673927191406,973.4488233954947 446,979 C 470.2326072808594,984.5511766045053 483.21599253152704,983.6099425906109 510,978 C 536.784007468473,972.3900574093891 577.3686371547511,962.1114062420621 602,952 C 626.6313628452489,941.8885937579379 635.3094588494688,931.9444324411401 653,936 C 670.6905411505312,940.0555675588599 697.3935274473737,958.1108639933774 724,977 C 750.6064725526263,995.8891360066226 777.1164313610366,1015.6121115853502 806,1011 C 834.8835686389634,1006.3878884146498 866.1407471084805,977.4406896652217 895,966 C 923.8592528915195,954.5593103347783 950.3205802050413,960.6251297537627 973,976 C 995.6794197949587,991.3748702462373 1014.5769320713541,1016.0587913197278 1033,1011 C 1051.4230679286459,1005.9412086802722 1069.371691509542,971.139704967326 1096,951 C 1122.628308490458,930.860295032674 1157.9363018904783,925.3823888109688 1186,939 C 1214.0636981095217,952.6176111890312 1234.8831009285448,985.330739788799 1260,992 C 1285.1168990714552,998.669260211201 1314.531294395342,979.2946520338353 1342,972 C 1369.468705604658,964.7053479661647 1394.991721490087,969.4906520758597 1412,977 C 1429.008278509913,984.5093479241403 1437.50181964431,994.742739662726 1463,988 C 1488.49818035569,981.257260337274 1531.0009999326728,957.5383892732362 1558,952 C 1584.9990000673272,946.4616107267638 1596.494180624998,959.103703244329 1616,968 C 1635.505819375002,976.896296755671 1663.022277567335,982.0467977494477 1692,981 C 1720.977722432665,979.9532022505523 1751.416709105663,972.7091057578799 1777,969 C 1802.583290894337,965.2908942421201 1823.3108860100137,965.1167792190323 1849,961 C 1874.6891139899863,956.8832207809677 1905.3397468542817,948.8237773659907 1918,950 C 1930.6602531457183,951.1762226340093 1925.3301265728592,961.5881113170046 1920,972 C 1920,972 1920,1080 1920,1080 Z" fill="#8d99ae" opacity="0.54"/></svg>