<svg width="1920" height="1080" viewBox="0 0 1920 1080" xmlns="http://www.w3.org/2000/svg"><rect width="1920" height="1080" fill="#ef233c"/><path d="M 0,1080 C 0,1080 0,180 0,180 C 117.40000000000003,167.83333333333334 234.80000000000007,155.66666666666669 329,177 C 423.19999999999993,198.33333333333331 494.19999999999993,253.16666666666663 599,246 C 703.8000000000001,238.83333333333337 842.4000000000001,169.66666666666669 967,167 C 1091.6,164.33333333333331 1202.1999999999998,228.16666666666666 1292,225 C 1381.8000000000002,221.83333333333334 1450.8,151.66666666666669 1552,133 C 1653.2,114.33333333333333 1786.6,147.16666666666666 1920,180 C 1920,180 1920,1080 1920,1080 Z" fill="#edf2f4" opacity="0.09999999999999999"/><path d="M 0,1080 C 0,1080 0,360 0,360 C 87.33333333333334,331.6051282051282 174.66666666666669,303.2102564102564 276,305 C 377.3333333333333,306.7897435897436 492.66666666666663,338.7641025641026 602,355 C 711.3333333333334,371.2358974358974 814.6666666666667,371.7333333333333 932,382 C 1049.3333333333333,392.2666666666667 1180.6666666666665,412.30256410256413 1285,409 C 1389.3333333333335,405.69743589743587 1466.6666666666667,379.0564102564103 1568,367 C 1669.3333333333333,354.9435897435897 1794.6666666666665,357.4717948717948 1920,360 C 1920,360 1920,1080 1920,1080 Z" fill="#edf2f4" opacity="0.19999999999999998"/><path d="M 0,1080 C 0,1080 0,540 0,540 C 118.5,516.8333333333334 237,493.6666666666667 341,479 C 445,464.3333333333333 534.5000000000001,458.1666666666666 625,479 C 715.4999999999999,499.8333333333334 807,547.6666666666667 930,543 C 1053,538.3333333333333 1207.5,481.1666666666667 1310,488 C 1412.5,494.8333333333333 1463,565.6666666666667 1556,585 C 1649,604.3333333333333 1784.5,572.1666666666666 1920,540 C 1920,540 1920,1080 1920,1080 Z" fill="#edf2f4" opacity="0.3"/><path d="M 0,1080 C 0,1080 0,720 0,720 C 84.34871794871793,686.6820512820514 168.69743589743587,653.3641025641026 280,662 C 391.30256410256413,670.6358974358974 529.5589743589744,721.225641025641 659,748 C 788.4410256410256,774.774358974359 909.0666666666666,777.7333333333333 990,780 C 1070.9333333333334,782.2666666666667 1112.174358974359,783.8410256410257 1225,771 C 1337.825641025641,758.1589743589743 1522.2358974358974,730.9025641025642 1650,720 C 1777.7641025641026,709.0974358974358 1848.8820512820512,714.5487179487179 1920,720 C 1920,720 1920,1080 1920,1080 Z" fill="#edf2f4" opacity="0.39999999999999997"/><path d="M 0,1080 C 0,1080 0,900 0,900 C 93.7564102564103,864.2564102564103 187.5128205128206,828.5128205128206 288,843 C 388.4871794871794,857.4871794871794 495.70512820512806,922.2051282051281 620,934 C 744.2948717948719,945.7948717948719 885.6666666666667,904.6666666666667 1000,878 C 1114.3333333333333,851.3333333333333 1201.628205128205,839.1282051282052 1306,860 C 1410.371794871795,880.8717948717948 1531.820512820513,934.8205128205128 1637,947 C 1742.179487179487,959.1794871794872 1831.0897435897436,929.5897435897436 1920,900 C 1920,900 1920,1080 1920,1080 Z" fill="#edf2f4" opacity="0.49999999999999994"/></svg>