<svg width="1920" height="1080" viewBox="0 0 1920 1080" xmlns="http://www.w3.org/2000/svg"><rect width="1920" height="1080" fill="#edf2f4"/><path d="M1920,1080C1601.6666666666667,1122.6666666666667,284.6666666666667,1099.8333333333333,0,1080C-284.6666666666667,1060.1666666666667,141.66666666666669,997.1666666666666,212,961C282.3333333333333,924.8333333333334,352.1666666666667,853.5,422,863C491.8333333333333,872.5,560,993.6666666666666,631,1018C702,1042.3333333333333,776.8333333333334,1026,848,1009C919.1666666666666,992,986.1666666666666,915.3333333333334,1058,916C1129.8333333333333,916.6666666666666,1207.5,1024.6666666666667,1279,1013C1350.5,1001.3333333333334,1416,849,1487,846C1558,843,1634.5,998.6666666666666,1705,995C1775.5,991.3333333333334,1874.1666666666667,809.8333333333334,1910,824C1945.8333333333333,838.1666666666666,2238.3333333333335,1037.3333333333333,1920,1080C1601.6666666666667,1122.6666666666667,284.6666666666667,1099.8333333333333,0,1080" fill="#ef233c"/></svg>