<svg width="1920" height="1080" viewBox="0 0 1920 1080" xmlns="http://www.w3.org/2000/svg"><rect width="1920" height="1080" fill="#8d99ae"/><path d="M 0,1080 C 0,1080 0,108 0,108 C 17.20285944777887,113.38195632672885 34.40571889555774,118.76391265345771 60,117 C 85.59428110444226,115.23608734654229 119.57998386554792,106.32630571289802 145,111 C 170.42001613445208,115.67369428710198 187.27434564225055,133.93086449495019 210,127 C 232.72565435774945,120.06913550504983 261.32263356544985,87.9502363073013 288,89 C 314.67736643455015,90.0497636926987 339.43512009594997,124.2681902758446 362,133 C 384.56487990405003,141.7318097241554 404.9368860507503,124.97700258932034 434,118 C 463.0631139492497,111.02299741067966 500.81733570104893,113.82379936687403 525,118 C 549.1826642989511,122.17620063312597 559.7937711450535,127.72779994318353 579,130 C 598.2062288549465,132.27220005681647 626.0075797187368,131.2650008603918 652,129 C 677.9924202812632,126.7349991396082 702.1759099799993,123.21219661524937 729,121 C 755.8240900200007,118.78780338475063 785.2887803612657,117.88621267861073 813,105 C 840.7112196387343,92.11378732138927 866.668968574938,67.24295267030763 893,68 C 919.331031425062,68.75704732969237 946.035345338982,95.1419766401587 970,99 C 993.964654661018,102.8580233598413 1015.1896500691344,84.18914076905753 1034,78 C 1052.8103499308656,71.81085923094247 1069.2060543844798,78.10146028361117 1094,83 C 1118.7939456155202,87.89853971638883 1151.9861323929463,91.4050180964978 1180,95 C 1208.0138676070537,98.5949819035022 1230.8494160437344,102.27846733039762 1259,110 C 1287.1505839562656,117.72153266960238 1320.6162034321146,129.4811125819117 1341,132 C 1361.3837965678854,134.5188874180883 1368.685770227806,127.79708234195547 1392,135 C 1415.314229772194,142.20291765804453 1454.6407156566615,163.33055805026626 1486,148 C 1517.3592843433385,132.66944194973374 1540.7513671455474,80.88068545697944 1561,69 C 1581.2486328544526,57.119314543020565 1598.3538157611488,85.14670012181602 1624,89 C 1649.6461842388512,92.85329987818398 1683.833369809858,72.53251405575647 1708,85 C 1732.166630190142,97.46748594424353 1746.3127049994193,142.72324365515803 1769,143 C 1791.6872950005807,143.27675634484197 1822.915810192464,98.57451132361129 1849,92 C 1875.084189807536,85.42548867638871 1896.0240542307245,116.97871105039678 1907,126 C 1917.9759457692755,135.02128894960322 1918.9879728846377,121.51064447480161 1920,108 C 1920,108 1920,1080 1920,1080 Z" fill="#edf2f4" opacity="0.06"/><path d="M 0,1080 C 0,1080 0,216 0,216 C 14.968530276778132,219.29161873039362 29.937060553556265,222.58323746078727 60,222 C 90.06293944644374,221.41676253921273 135.2202880625531,216.9586688872446 160,216 C 184.7797119374469,215.0413311127554 189.18178719623145,217.58208699023427 211,216 C 232.81821280376855,214.41791300976573 272.0525631525212,208.71298315181826 298,213 C 323.9474368474788,217.28701684818174 336.6079601936839,231.5659804024927 363,233 C 389.3920398063161,234.4340195975073 429.51559607274334,223.02309523821089 456,210 C 482.48440392725666,196.97690476178911 495.32965551534267,182.3416386446638 515,177 C 534.6703444846573,171.6583613553362 561.1657818658858,175.610350183134 588,190 C 614.8342181341142,204.389649816866 642.0072170211138,229.21696062280023 664,240 C 685.9927829788862,250.78303937719977 702.8053500496595,247.52180732566524 727,243 C 751.1946499503405,238.47819267433476 782.7713827802482,232.69581007453874 807,229 C 831.2286172197518,225.30418992546126 848.1091188293475,223.69495237617974 874,217 C 899.8908811706525,210.30504762382026 934.7921419023613,198.5243804207423 961,186 C 987.2078580976387,173.4756195792577 1004.7223135612078,160.20752594085113 1031,177 C 1057.2776864387922,193.79247405914887 1092.3186038528074,240.64551581585317 1118,254 C 1143.6813961471926,267.3544841841468 1160.0032710275623,247.21041079573612 1179,227 C 1197.9967289724377,206.78958920426388 1219.6683120369437,186.51284100120216 1247,190 C 1274.3316879630563,193.48715899879784 1307.3234808246636,220.7382251994551 1333,226 C 1358.6765191753364,231.2617748005449 1377.0377646644022,214.53425820097758 1403,203 C 1428.9622353355978,191.46574179902242 1462.5254605177277,185.12474199663447 1487,188 C 1511.4745394822723,190.87525800336553 1526.8603932646865,202.9667738124845 1551,209 C 1575.1396067353135,215.0332261875155 1608.0329664235257,215.00816275342754 1630,217 C 1651.9670335764743,218.99183724657246 1663.0077410412098,223.0005751738053 1686,234 C 1708.9922589587902,244.9994248261947 1743.9360694116347,262.98953655135114 1769,252 C 1794.0639305883653,241.01046344864886 1809.2479813122523,201.0412786207901 1836,186 C 1862.7520186877477,170.9587213792099 1901.0720053393566,180.84534896548854 1917,190 C 1932.9279946606434,199.15465103451146 1926.4639973303217,207.57732551725573 1920,216 C 1920,216 1920,1080 1920,1080 Z" fill="#edf2f4" opacity="0.12"/><path d="M 0,1080 C 0,1080 0,324 0,324 C 19.78168739046381,315.8269915863883 39.56337478092762,307.6539831727766 62,306 C 84.43662521907238,304.3460168272234 109.52818826675332,309.2110588952818 137,321 C 164.47181173324668,332.7889411047182 194.32387215205912,351.50178124609636 218,353 C 241.67612784794088,354.49821875390364 259.1763231250101,338.781816120333 284,340 C 308.8236768749899,341.218183879667 340.97083534790073,359.3709542725717 364,348 C 387.02916465209927,336.6290457274283 400.94033548338683,295.7343667893803 430,299 C 459.05966451661317,302.2656332106197 503.26782271855177,349.69157856990705 529,349 C 554.7321772814482,348.30842143009295 561.988373642406,299.49931893099154 584,296 C 606.011626357594,292.50068106900846 642.7786827118242,334.31114570612675 670,338 C 697.2213172881758,341.68885429387325 714.8968955102968,307.25609824450163 736,296 C 757.1031044897032,284.74390175549837 781.6337352469891,296.6644613158666 809,305 C 836.3662647530109,313.3355386841334 866.5681635017465,318.0860564920319 894,313 C 921.4318364982535,307.9139435079681 946.0936107460249,292.9913127160058 970,306 C 993.9063892539751,319.0086872839942 1017.0573935141542,359.9486926439451 1037,363 C 1056.9426064858458,366.0513073560549 1073.6768151973583,331.2139167082138 1100,310 C 1126.3231848026417,288.7860832917862 1162.2353456964124,281.19564052319964 1193,293 C 1223.7646543035876,304.80435947680036 1249.381802016992,336.0035211989875 1268,353 C 1286.618197983008,369.9964788010125 1298.2374462356192,372.7902746808499 1318,353 C 1337.7625537643808,333.2097253191501 1365.6684130405313,290.83538007761297 1392,284 C 1418.3315869594687,277.16461992238703 1443.0889016022556,305.8682050086982 1467,309 C 1490.9110983977444,312.1317949913018 1513.9759805504466,289.69179988759396 1541,283 C 1568.0240194495534,276.30820011240604 1599.0071761959575,285.36459544092594 1626,303 C 1652.9928238040425,320.63540455907406 1675.995314665724,346.8498183487021 1700,362 C 1724.004685334276,377.1501816512979 1749.0115651411463,381.23613116426543 1771,359 C 1792.9884348588537,336.76386883573457 1811.9584247696912,288.2056569942363 1841,286 C 1870.0415752303088,283.7943430057637 1909.1547357800885,327.94124085878957 1924,342 C 1938.8452642199115,356.05875914121043 1929.4226321099559,340.0293795706052 1920,324 C 1920,324 1920,1080 1920,1080 Z" fill="#edf2f4" opacity="0.18"/><path d="M 0,1080 C 0,1080 0,432 0,432 C 24.136160234470367,448.05177941863076 48.272320468940734,464.1035588372616 74,466 C 99.72767953105927,467.8964411627384 127.0468783587074,455.6375440695845 149,450 C 170.9531216412926,444.3624559304155 187.5401660962297,445.34626488440006 209,435 C 230.4598339037703,424.65373511559994 256.7924572563738,402.97739639281514 282,399 C 307.2075427436262,395.02260360718486 331.29000487827534,408.7441495443392 358,408 C 384.70999512172466,407.2558504556608 414.04752323052503,392.0460054298278 441,399 C 467.95247676947497,405.9539945701722 492.5199021996243,435.0718287363496 515,439 C 537.4800978003757,442.9281712636504 557.8728679709776,421.66667962477396 586,429 C 614.1271320290224,436.33332037522604 649.9886259164649,472.2614527645546 677,469 C 704.0113740835351,465.7385472354454 722.1726283631623,423.28750931700773 739,419 C 755.8273716368377,414.71249068299227 771.3208606308859,448.5885099674144 798,453 C 824.6791393691141,457.4114900325856 862.5439291132939,432.3584508133347 889,431 C 915.4560708867061,429.6415491866653 930.5034229159388,451.97768677924705 955,456 C 979.4965770840612,460.02231322075295 1013.4423792229504,445.7308020696772 1040,434 C 1066.5576207770496,422.2691979303228 1085.7270601922596,413.09910494204405 1108,410 C 1130.2729398077404,406.90089505795595 1155.6493800080118,409.8727781621466 1184,415 C 1212.3506199919882,420.1272218378534 1243.675419775693,427.40978240936965 1267,432 C 1290.324580224307,436.59021759063035 1305.6489408892166,438.48809220037464 1325,438 C 1344.3510591107834,437.51190779962536 1367.7288166674396,434.63784878913145 1397,427 C 1426.2711833325604,419.36215121086855 1461.4357924410251,406.9605126430992 1490,413 C 1518.5642075589749,419.0394873569008 1540.5280135684598,443.52010063847143 1559,446 C 1577.4719864315402,448.47989936152857 1592.452153285135,428.959084803015 1612,422 C 1631.547846714865,415.040915196985 1655.6633732909995,420.64356014946827 1685,420 C 1714.3366267090005,419.35643985053173 1748.8943535508658,412.46667459911157 1773,413 C 1797.1056464491342,413.53332540088843 1810.7592125055362,421.4897414540853 1836,418 C 1861.2407874944638,414.5102585459147 1898.0687964269894,399.57435958454704 1914,400 C 1929.9312035730106,400.42564041545296 1924.9656017865054,416.2128202077265 1920,432 C 1920,432 1920,1080 1920,1080 Z" fill="#edf2f4" opacity="0.24"/><path d="M 0,1080 C 0,1080 0,540 0,540 C 20.342353518051368,555.7401378945058 40.684707036102736,571.4802757890114 64,562 C 87.31529296389726,552.5197242109886 113.60352537364045,517.8190347384597 140,519 C 166.39647462635955,520.1809652615403 192.9011914693356,557.2435852571498 221,574 C 249.0988085306644,590.7564147428502 278.79170874901723,587.2066242329416 300,568 C 321.20829125098277,548.7933757670584 333.93197353459544,513.929917811084 358,521 C 382.06802646540456,528.070082188916 417.4803971126008,577.0737045227227 448,579 C 478.5196028873992,580.9262954772773 504.1464380150013,535.7752640980251 527,533 C 549.8535619849987,530.2247359019749 569.9338508273939,569.8252390851769 594,572 C 618.0661491726061,574.1747609148231 646.1181586754228,538.9237795612672 670,518 C 693.8818413245772,497.0762204387328 713.5935144709152,490.4796426697545 740,508 C 766.4064855290848,525.5203573302455 799.5077834409168,567.1576497597147 825,563 C 850.4922165590832,558.8423502402853 868.3753517654181,508.88975829138633 892,512 C 915.6246482345819,515.1102417086137 944.990809497411,571.2833170747401 967,571 C 989.009190502589,570.7166829252599 1003.6614102449382,513.9769734096533 1026,507 C 1048.3385897550618,500.0230265903468 1078.3635495228361,542.8087892866471 1108,563 C 1137.6364504771639,583.1912107133529 1166.884391663717,580.7878694437587 1188,573 C 1209.115608336283,565.2121305562413 1222.0988838222956,552.039732938318 1245,556 C 1267.9011161777044,559.960267061682 1300.7200730471006,581.0531988029687 1330,575 C 1359.2799269528994,568.9468011970313 1385.0208239893016,535.7474718498069 1412,533 C 1438.9791760106984,530.2525281501931 1467.1966309956922,557.9569137978037 1489,550 C 1510.8033690043078,542.0430862021963 1526.1926520279292,498.42487295897797 1547,508 C 1567.8073479720708,517.575127041022 1594.0327608925904,580.3435943662842 1623,579 C 1651.9672391074096,577.6564056337158 1683.676304401709,512.2007495758851 1711,499 C 1738.323695598291,485.79925042411486 1761.262021500573,524.8534073301751 1781,549 C 1800.737978499427,573.1465926698249 1817.2756095959994,582.3856211034145 1840,569 C 1862.7243904040006,555.6143788965855 1891.6355401154287,519.6041082561673 1906,511 C 1920.3644598845713,502.39589174383275 1920.1822299422856,521.1979458719163 1920,540 C 1920,540 1920,1080 1920,1080 Z" fill="#edf2f4" opacity="0.3"/><path d="M 0,1080 C 0,1080 0,648 0,648 C 20.94431737182584,638.4543222260468 41.88863474365168,628.9086444520935 67,632 C 92.11136525634832,635.0913555479065 121.38977839721912,650.8197444176727 150,664 C 178.61022160278088,677.1802555823273 206.55225166747186,687.8123778772156 234,675 C 261.44774833252814,662.1876221227844 288.40121493289354,625.9307440734652 308,626 C 327.59878506710646,626.0692559265348 339.84288860095387,662.4646458289236 365,671 C 390.15711139904613,679.5353541710764 428.22723066329087,660.2106726108407 453,657 C 477.77276933670913,653.7893273891593 489.248188745883,666.6926637277137 508,676 C 526.751811254117,685.3073362722863 552.7800143531774,691.0186724783048 579,676 C 605.2199856468226,660.9813275216952 631.6317538414073,625.2326463590668 656,622 C 680.3682461585927,618.7673536409332 702.6929702811935,648.0507420854276 727,647 C 751.3070297188065,645.9492579145724 777.5963650338186,614.5643852992226 800,618 C 822.4036349661814,621.4356147007774 840.9215695835321,659.6917167176817 872,676 C 903.0784304164679,692.3082832823183 946.717356632053,686.6687478300504 973,671 C 999.282643367947,655.3312521699496 1008.2090038882559,629.6332919621168 1031,623 C 1053.790996111744,616.3667080378832 1090.4466278149232,628.7980843214823 1118,631 C 1145.5533721850768,633.2019156785177 1164.004484852051,625.1743707519539 1189,624 C 1213.995515147949,622.8256292480461 1245.535432776873,628.5044326707023 1268,638 C 1290.464567223127,647.4955673292977 1303.8537840404574,660.807898565237 1326,656 C 1348.1462159595426,651.192101434763 1379.0494310612978,628.2639730683497 1406,624 C 1432.9505689387022,619.7360269316503 1455.9484917143504,634.1362091613637 1481,646 C 1506.0515082856496,657.8637908386363 1533.1566020812995,667.1911902861955 1553,677 C 1572.8433979187005,686.8088097138045 1585.4250999604512,697.0990296938543 1613,680 C 1640.5749000395488,662.9009703061457 1683.1429980768955,618.4126909383871 1708,611 C 1732.8570019231045,603.5873090616129 1740.0029077319657,633.2502065525973 1758,641 C 1775.9970922680343,648.7497934474027 1804.8453709952398,634.5864828512238 1834,643 C 1863.1546290047602,651.4135171487762 1892.615608287074,682.4038620425074 1907,687 C 1921.384391712926,691.5961379574926 1920.692195856463,669.7980689787463 1920,648 C 1920,648 1920,1080 1920,1080 Z" fill="#edf2f4" opacity="0.36"/><path d="M 0,1080 C 0,1080 0,756 0,756 C 29.324572506795235,750.0881352743627 58.64914501359047,744.1762705487255 86,751 C 113.35085498640953,757.8237294512745 138.7279924524333,777.3830530794606 161,771 C 183.2720075475667,764.6169469205394 202.43888517667622,732.291517133432 221,725 C 239.56111482332378,717.708482866568 257.5164668408617,735.4508783868113 282,741 C 306.4835331591383,746.5491216131887 337.4952474598766,739.904969319323 369,741 C 400.5047525401234,742.095030680677 432.50254331963185,750.9292443358969 454,761 C 475.49745668036815,771.0707556641031 486.49457926159596,782.3780533370898 504,787 C 521.505420738404,791.6219466629102 545.5191396339844,789.5585423157439 577,776 C 608.4808603660156,762.4414576842561 647.4288622024666,737.3877773999344 677,726 C 706.5711377975334,714.6122226000656 726.7654115561496,716.8903480845189 746,724 C 765.2345884438504,731.1096519154811 783.5094915729352,743.0508302619899 805,745 C 826.4905084270648,746.9491697380101 851.19662215211,738.9063308675218 875,744 C 898.80337784789,749.0936691324782 921.7040198186245,767.3238462679234 949,775 C 976.2959801813755,782.6761537320766 1007.9872985733919,779.7982840607847 1032,778 C 1056.0127014266081,776.2017159392153 1072.346785887807,775.4830174889378 1095,768 C 1117.653214112193,760.5169825110622 1146.62555787538,746.2696459834647 1178,739 C 1209.37444212462,731.7303540165353 1243.1509826106717,731.4383985772037 1267,742 C 1290.8490173893283,752.5616014227963 1304.7705116819336,773.9767597077204 1325,767 C 1345.2294883180664,760.0232402922796 1371.7669706615934,724.654562591915 1395,720 C 1418.2330293384066,715.345437408085 1438.161605671693,741.4049899246194 1466,747 C 1493.838394328307,752.5950100753806 1529.5866066516348,737.725477709607 1555,736 C 1580.4133933483652,734.274522290393 1595.4919677217677,745.6930992369521 1622,747 C 1648.5080322782323,748.3069007630479 1686.445522461294,739.5021253425846 1710,733 C 1733.554477538706,726.4978746574154 1742.725942433055,722.2983993927094 1760,731 C 1777.274057566945,739.7016006072906 1802.650707806485,761.3042770865782 1834,773 C 1865.349292193515,784.6957229134218 1902.6712263410043,786.4844922609776 1918,782 C 1933.3287736589957,777.5155077390224 1926.6643868294977,766.7577538695111 1920,756 C 1920,756 1920,1080 1920,1080 Z" fill="#edf2f4" opacity="0.42"/><path d="M 0,1080 C 0,1080 0,864 0,864 C 31.236696381370358,877.5620934671124 62.473392762740716,891.1241869342247 85,888 C 107.52660723725928,884.8758130657753 121.34312533040747,865.0653457302136 146,857 C 170.65687466959253,848.9346542697864 206.15410591562937,852.6144301449212 232,862 C 257.8458940843706,871.3855698550788 274.040451007075,886.4769336901011 296,894 C 317.959548992925,901.5230663098989 345.6840900560705,901.4778350946746 367,889 C 388.3159099439295,876.5221649053254 403.2231887686431,851.6117259312005 432,858 C 460.7768112313569,864.3882740687995 503.42315486935706,902.0752611805235 530,902 C 556.5768451306429,901.9247388194765 567.0841917539287,864.087229346705 588,846 C 608.9158082460713,827.912770653295 640.240078114928,829.5758214326561 666,837 C 691.759921885072,844.4241785673439 711.9554957863587,857.6094849226706 737,873 C 762.0445042136413,888.3905150773294 791.937938739637,905.9862388766614 819,901 C 846.062061260363,896.0137611233386 870.292749255093,868.4455595706837 895,852 C 919.707250744907,835.5544404293163 944.8910642399906,830.2315228406037 964,834 C 983.1089357600094,837.7684771593963 996.1429937849441,850.6283490669018 1020,846 C 1043.857006215056,841.3716509330982 1078.5369606202325,819.255080891789 1103,829 C 1127.4630393797675,838.744919108211 1141.7091637341257,880.3513273659419 1169,889 C 1196.2908362658743,897.6486726340581 1236.626384443264,873.3396096444436 1262,868 C 1287.373615556736,862.6603903555564 1297.7852984928186,876.2902340562839 1323,885 C 1348.2147015071814,893.7097659437161 1388.2324215854617,897.4994541304203 1413,884 C 1437.7675784145383,870.5005458695797 1447.2850151653345,839.7119494220344 1466,831 C 1484.7149848346655,822.2880505779656 1512.6275177531998,835.6527481814421 1537,846 C 1561.3724822468002,856.3472518185579 1582.2049138218665,863.6770578521969 1611,875 C 1639.7950861781335,886.3229421478031 1676.552826959334,901.6390204097705 1706,884 C 1735.447173040666,866.3609795902295 1757.5837783407972,815.7668605087213 1776,824 C 1794.4162216592028,832.2331394912787 1809.1120596774776,899.2935375553442 1837,903 C 1864.8879403225224,906.7064624446558 1905.967982949292,847.0589892699016 1922,830 C 1938.032017050708,812.9410107300984 1929.016008525354,838.4705053650491 1920,864 C 1920,864 1920,1080 1920,1080 Z" fill="#edf2f4" opacity="0.48"/><path d="M 0,1080 C 0,1080 0,972 0,972 C 24.79046946363288,976.4390291558971 49.58093892726576,980.8780583117942 75,980 C 100.41906107273424,979.1219416882058 126.46671375456984,972.9267959087201 150,965 C 173.53328624543016,957.0732040912799 194.55220605445487,947.4147580533254 218,944 C 241.44779394554513,940.5852419466746 267.3244620276106,943.4141718779781 289,943 C 310.6755379723894,942.5858281220219 328.14994583510264,938.9285544347616 357,940 C 385.85005416489736,941.0714455652384 426.0757546319786,946.8716103829751 449,959 C 471.9242453680214,971.1283896170249 477.54703563698297,989.5850040333378 503,988 C 528.452964363017,986.4149959666622 573.7361028200897,964.7883734836731 602,968 C 630.2638971799103,971.2116265163269 641.508553082658,999.2615020319697 659,1004 C 676.491446917342,1008.7384979680303 700.2296848492783,990.1656183884478 725,981 C 749.7703151507217,971.8343816115522 775.5727075202285,972.0760244142389 802,979 C 828.4272924797715,985.9239755857611 855.4794850698075,999.5302839545968 880,998 C 904.5205149301925,996.4697160454032 926.5093522005412,979.8028397673736 953,983 C 979.4906477994588,986.1971602326264 1010.4831061280279,1009.2583569759096 1036,1005 C 1061.5168938719721,1000.7416430240904 1081.5582232873462,969.1637323289876 1108,962 C 1134.4417767126538,954.8362676710124 1167.2840007225875,972.0867137081393 1191,984 C 1214.7159992774125,995.9132862918607 1229.3057738223038,1002.4894128384545 1251,996 C 1272.6942261776962,989.5105871615455 1301.4929039881981,969.9556349380423 1327,971 C 1352.5070960118019,972.0443650619577 1374.7226102249035,993.6880474093764 1396,997 C 1417.2773897750965,1000.3119525906236 1437.6166551121878,985.2921754244526 1465,985 C 1492.3833448878122,984.7078245755474 1526.8107693263455,999.1432508928133 1552,992 C 1577.1892306736545,984.8567491071867 1593.14026758243,956.1348210042943 1614,960 C 1634.85973241757,963.8651789957057 1660.6281603439345,1000.3174650900096 1692,1009 C 1723.3718396560655,1017.6825349099904 1760.3470910418318,998.5953186356675 1781,991 C 1801.6529089581682,983.4046813643325 1805.9834754887377,987.3012603673203 1834,978 C 1862.0165245112623,968.6987396326797 1913.7190070032177,946.1996398950513 1932,943 C 1950.2809929967823,939.8003601049487 1935.1404964983913,955.9001800524743 1920,972 C 1920,972 1920,1080 1920,1080 Z" fill="#edf2f4" opacity="0.54"/></svg>